# xmcd
#
# Track frame offsets: 
#        150
#        49483
#        73208
#        95395
#        130013
#        160153
#
# Disc length: 2591 seconds
#
# Revision: 3
# Processed by: cddbd v1.5.1PL2 Copyright (c) Steve Scherf et al.
# Submitted via: ExactAudioCopy v0.95b4
#
DISCID=500a1d06
DTITLE=Shorty Baker and Doc Cheatham - Shorty and Doc
DYEAR=1961
DGENRE=Jazz
TTITLE0=Chitlin's
TTITLE1=I Didn't Know What Is Love
TTITLE2=Baker's Dozen
TTITLE3=Good Queen Bess
TTITLE4=Night Train
TTITLE5=Lullabye In Rhythm
EXTD=YEAR: 1961
EXTT0=
EXTT1=
EXTT2=
EXTT3=
EXTT4=
EXTT5=
PLAYORDER=
